<svg width="537" height="141" viewBox="0 0 537 141" fill="none" xmlns="http://www.w3.org/2000/svg">
<g clip-path="url(#clip0_16_7)">
<path d="M35.968 118.104L9.984 98.776C6.74133 96.472 5.12 93.1867 5.12 88.92C5.12 84.9093 6.61333 81.752 9.6 79.448L31.872 61.272C36.3947 57.7733 40.4907 56.024 44.16 56.024C45.952 56.024 47.7867 57.0053 49.664 58.968C51.5413 60.9307 52.48 63.1493 52.48 65.624C52.48 66.7333 52.1813 67.8 51.584 68.824C51.072 69.848 50.2613 70.9147 49.152 72.024C48.0427 73.1333 46.464 74.456 44.416 75.992L29.184 88.536L44.8 100.44C48.2133 102.829 50.3893 104.792 51.328 106.328C52.2667 107.864 52.736 109.613 52.736 111.576C52.736 114.051 51.7973 116.269 49.92 118.232C48.0427 120.195 46.1653 121.176 44.288 121.176C41.6427 121.176 38.8693 120.152 35.968 118.104ZM125.673 93.528C125.673 96.0027 126.398 97.9653 127.849 99.416C129.3 100.867 130.921 101.592 132.713 101.592C134.846 101.592 136.382 101.037 137.321 99.928C138.26 98.7333 138.729 96.6 138.729 93.528V46.68C138.729 41.4747 139.838 37.6347 142.057 35.16C144.361 32.6 148.116 31.32 153.321 31.32C157.929 31.32 161.556 32.3867 164.201 34.52C166.846 36.6533 168.169 40.3227 168.169 45.528V93.016C168.169 102.403 165.31 109.229 159.593 113.496C153.961 117.763 145.641 119.896 134.633 119.896C131.134 119.896 127.892 119.64 124.905 119.128C121.918 118.616 119.273 117.933 116.969 117.08C114.665 116.141 112.532 115.075 110.569 113.88C108.692 112.685 107.07 111.363 105.705 109.912C104.425 108.461 103.273 106.968 102.249 105.432C101.225 103.811 100.414 102.189 99.817 100.568C99.305 98.8613 98.8783 97.2827 98.537 95.832C98.281 94.296 98.153 92.76 98.153 91.224C98.153 85.5067 99.0917 81.624 100.969 79.576C102.932 77.4427 106.729 76.376 112.361 76.376C116.884 76.376 120.34 77.1867 122.729 78.808C125.204 80.4293 126.441 82.648 126.441 85.464C126.441 86.3173 126.313 87.6827 126.057 89.56C125.801 91.4373 125.673 92.76 125.673 93.528ZM259.971 72.152L243.971 104.92C242.606 107.651 241.155 109.613 239.619 110.808C238.083 111.917 236.248 112.472 234.115 112.472C231.384 112.472 229.08 111.533 227.203 109.656C225.326 107.693 222.894 104.195 219.907 99.16L205.059 72.152V108.376C205.059 112.045 204.206 114.733 202.499 116.44C200.878 118.147 198.403 119 195.075 119C191.32 119 188.59 118.189 186.883 116.568C185.176 114.861 184.323 111.576 184.323 106.712V50.904C184.323 44.3333 185.816 39.384 188.803 36.056C191.79 32.728 196.824 31.064 203.907 31.064C206.552 31.064 208.856 31.5333 210.819 32.472C212.782 33.3253 214.232 34.3493 215.171 35.544C216.195 36.6533 217.176 38.0613 218.115 39.768L235.267 77.272L253.443 40.408C256.6 34.264 262.275 31.192 270.467 31.192C274.307 31.192 277.592 31.8747 280.323 33.24C283.054 34.52 285.187 36.6533 286.723 39.64C288.344 42.5413 289.155 46.2107 289.155 50.648V106.328C289.07 114.776 283.736 119 273.155 119C269.315 119 266.158 117.976 263.683 115.928C261.294 113.795 260.056 110.381 259.971 105.688V72.152ZM321.951 119C318.026 118.915 314.868 118.317 312.479 117.208C310.09 116.013 308.298 114.093 307.103 111.448C305.908 108.803 305.311 105.261 305.311 100.824V46.68C305.311 42.1573 306.634 38.488 309.279 35.672C311.924 32.7707 315.423 31.32 319.775 31.32C324.895 31.32 328.65 32.2587 331.039 34.136C333.514 36.0133 334.751 39.8107 334.751 45.528V96.856H356.639C361.588 96.856 365.044 97.5813 367.007 99.032C369.055 100.483 370.079 103.469 370.079 107.992C370.079 112.6 368.927 115.587 366.623 116.952C364.319 118.317 360.564 119 355.359 119H321.951ZM446.998 39.64L473.366 104.664C474.049 106.456 474.39 107.992 474.39 109.272C474.39 112.344 472.513 115.117 468.758 117.592C465.003 119.981 461.078 121.176 456.982 121.176C454.422 121.176 452.331 120.621 450.71 119.512C449.089 118.403 447.766 116.653 446.742 114.264L420.758 49.24C419.819 46.936 419.35 45.144 419.35 43.864C419.35 40.6213 421.142 37.72 424.726 35.16C428.395 32.5147 432.235 31.192 436.246 31.192C438.891 31.192 441.025 31.8747 442.646 33.24C444.267 34.6053 445.718 36.7387 446.998 39.64ZM500.745 118.104C497.844 120.152 495.07 121.176 492.425 121.176C490.548 121.176 488.67 120.195 486.793 118.232C484.916 116.269 483.977 114.051 483.977 111.576C483.977 109.613 484.446 107.864 485.385 106.328C486.324 104.792 488.5 102.829 491.913 100.44L507.529 88.536L492.297 75.992C489.31 73.688 487.22 71.8107 486.025 70.36C484.83 68.824 484.233 67.2453 484.233 65.624C484.233 63.1493 485.172 60.9307 487.049 58.968C488.926 57.0053 490.761 56.024 492.553 56.024C496.222 56.024 500.318 57.7733 504.841 61.272L527.113 79.448C530.1 81.752 531.593 84.9093 531.593 88.92C531.593 93.1867 529.972 96.472 526.729 98.776L500.745 118.104Z" fill="#0099FF"/>
</g>
<defs>
<clipPath id="clip0_16_7">
<rect width="537" height="141" fill="white"/>
</clipPath>
</defs>
</svg>
